<svg width="171" height="106" viewBox="0 0 171 106" fill="none" xmlns="http://www.w3.org/2000/svg">
<rect width="171" height="106" fill="white"/>
<path d="M75.356 35.648L69.368 53H65.396L59.456 35.648H62.804L67.388 48.932L72.008 35.648H75.356ZM80.8327 40.592V53H77.4847V40.592H80.8327ZM80.8687 35.66V38.816H77.4607V35.66H80.8687ZM94.6758 40.592L90.0198 53H87.4878L82.8198 40.592H85.9878L88.6998 48.5H88.7958L91.4718 40.592H94.6758ZM99.5609 53.24C98.7689 53.24 98.0569 53.092 97.4249 52.796C96.7929 52.5 96.2929 52.072 95.9249 51.512C95.5569 50.944 95.3729 50.256 95.3729 49.448C95.3729 48.088 95.8809 47.056 96.8969 46.352C97.9129 45.64 99.5169 45.272 101.709 45.248L103.257 45.224V44.48C103.257 43.912 103.089 43.476 102.753 43.172C102.425 42.86 101.913 42.708 101.217 42.716C100.705 42.724 100.217 42.844 99.7529 43.076C99.2969 43.308 98.9849 43.712 98.8169 44.288H95.9009C95.9489 43.392 96.2089 42.656 96.6809 42.08C97.1529 41.496 97.7929 41.064 98.6009 40.784C99.4169 40.496 100.341 40.352 101.373 40.352C102.645 40.352 103.665 40.512 104.433 40.832C105.201 41.144 105.757 41.596 106.101 42.188C106.445 42.772 106.617 43.468 106.617 44.276V53H103.689L103.401 50.864C102.977 51.76 102.445 52.38 101.805 52.724C101.173 53.068 100.425 53.24 99.5609 53.24ZM100.737 50.936C101.057 50.936 101.365 50.88 101.661 50.768C101.965 50.648 102.233 50.492 102.465 50.3C102.705 50.1 102.897 49.876 103.041 49.628C103.185 49.38 103.257 49.124 103.257 48.86V47.024L101.997 47.048C101.413 47.056 100.869 47.128 100.365 47.264C99.8609 47.392 99.4529 47.604 99.1409 47.9C98.8369 48.196 98.6849 48.596 98.6849 49.1C98.6849 49.676 98.8849 50.128 99.2849 50.456C99.6849 50.776 100.169 50.936 100.737 50.936ZM60.464 72V60.432H62.88L66.136 69.632L69.44 60.432H71.84V72H70.088V62.784L66.888 72H65.392L62.208 62.856V72H60.464ZM77.6762 72.16C76.9029 72.16 76.2256 71.9947 75.6443 71.664C75.0683 71.328 74.6203 70.8427 74.3003 70.208C73.9856 69.5733 73.8283 68.8053 73.8283 67.904C73.8283 67.0347 73.9776 66.2747 74.2763 65.624C74.5803 64.9733 75.0203 64.4693 75.5963 64.112C76.1723 63.7493 76.8683 63.568 77.6843 63.568C78.4629 63.568 79.1376 63.7387 79.7083 64.08C80.2789 64.416 80.7216 64.9093 81.0363 65.56C81.3509 66.2053 81.5083 66.9867 81.5083 67.904C81.5083 68.7413 81.3589 69.48 81.0603 70.12C80.7669 70.76 80.3349 71.2613 79.7643 71.624C79.1989 71.9813 78.5029 72.16 77.6762 72.16ZM77.6843 70.84C78.1536 70.84 78.5456 70.7173 78.8603 70.472C79.1803 70.2213 79.4203 69.872 79.5803 69.424C79.7403 68.9707 79.8203 68.448 79.8203 67.856C79.8203 67.3067 79.7483 66.808 79.6043 66.36C79.4656 65.9067 79.2389 65.5467 78.9243 65.28C78.6096 65.0133 78.1963 64.88 77.6843 64.88C77.2043 64.88 76.8043 65.0027 76.4843 65.248C76.1643 65.488 75.9216 65.832 75.7563 66.28C75.5963 66.7227 75.5163 67.248 75.5163 67.856C75.5163 68.3947 75.5883 68.8907 75.7323 69.344C75.8763 69.7973 76.1083 70.16 76.4283 70.432C76.7483 70.704 77.1669 70.84 77.6843 70.84ZM78.6603 60.432H80.5403L78.3003 62.76H77.0123L78.6603 60.432ZM89.7219 63.728L86.7139 72H85.2659L82.2499 63.728H83.8339L85.9299 69.832H86.0419L88.1379 63.728H89.7219ZM92.206 68.264C92.206 68.76 92.286 69.2053 92.446 69.6C92.6113 69.9893 92.8593 70.2987 93.19 70.528C93.5207 70.752 93.9313 70.864 94.422 70.864C94.9127 70.864 95.3367 70.752 95.694 70.528C96.0567 70.304 96.294 69.9707 96.406 69.528H97.99C97.894 70.0933 97.6673 70.5733 97.31 70.968C96.958 71.3627 96.5313 71.6613 96.03 71.864C95.5287 72.0613 95.0033 72.16 94.454 72.16C93.67 72.16 92.9793 71.992 92.382 71.656C91.7847 71.3147 91.318 70.8293 90.982 70.2C90.6513 69.5707 90.486 68.8213 90.486 67.952C90.486 67.0933 90.638 66.336 90.942 65.68C91.246 65.0187 91.686 64.5013 92.262 64.128C92.838 63.7547 93.5313 63.568 94.342 63.568C95.142 63.568 95.814 63.7387 96.358 64.08C96.9073 64.4213 97.3233 64.9013 97.606 65.52C97.8887 66.1333 98.03 66.8587 98.03 67.696V68.264H92.206ZM92.206 67.152H96.398C96.398 66.72 96.3233 66.328 96.174 65.976C96.0247 65.6187 95.7953 65.3387 95.486 65.136C95.182 64.928 94.798 64.824 94.334 64.824C93.8593 64.824 93.4647 64.9387 93.15 65.168C92.8353 65.3973 92.598 65.6907 92.438 66.048C92.2833 66.4053 92.206 66.7733 92.206 67.152ZM101.749 63.728V72H100.101V63.728H101.749ZM101.781 60.44V62.128H100.061V60.44H101.781ZM107.239 72.16C106.663 72.16 106.122 72.0693 105.615 71.888C105.114 71.7067 104.692 71.4213 104.351 71.032C104.015 70.6427 103.804 70.144 103.719 69.536H105.247C105.316 69.8507 105.447 70.112 105.639 70.32C105.836 70.5227 106.071 70.6747 106.343 70.776C106.62 70.872 106.916 70.92 107.231 70.92C107.754 70.92 108.175 70.8267 108.495 70.64C108.82 70.448 108.983 70.1547 108.983 69.76C108.983 69.4773 108.895 69.2507 108.719 69.08C108.548 68.9093 108.276 68.784 107.903 68.704L106.255 68.312C105.572 68.152 105.026 67.8987 104.615 67.552C104.204 67.2 103.996 66.7093 103.991 66.08C103.991 65.5947 104.111 65.1627 104.351 64.784C104.596 64.4053 104.959 64.1093 105.439 63.896C105.919 63.6773 106.516 63.568 107.231 63.568C108.164 63.568 108.914 63.776 109.479 64.192C110.044 64.608 110.338 65.2107 110.359 66H108.879C108.826 65.6213 108.652 65.3253 108.359 65.112C108.071 64.8933 107.69 64.784 107.215 64.784C106.724 64.784 106.322 64.8827 106.007 65.08C105.692 65.272 105.535 65.568 105.535 65.968C105.535 66.24 105.65 66.456 105.879 66.616C106.108 66.7707 106.452 66.8987 106.911 67L108.479 67.392C108.884 67.4987 109.218 67.64 109.479 67.816C109.74 67.9867 109.946 68.176 110.095 68.384C110.244 68.592 110.348 68.808 110.407 69.032C110.471 69.256 110.503 69.4667 110.503 69.664C110.503 70.1867 110.37 70.6347 110.103 71.008C109.842 71.376 109.466 71.6613 108.975 71.864C108.49 72.0613 107.911 72.16 107.239 72.16Z" fill="#D75B32"/>
</svg>
